<?xml version="1.0" encoding="UTF-8"?>
<!DOCTYPE svg PUBLIC "-//W3C//DTD SVG 1.1//EN" "http://www.w3.org/Graphics/SVG/1.1/DTD/svg11.dtd">
<svg xmlns="http://www.w3.org/2000/svg" version="1.1" width="330px" height="330px" style="shape-rendering:geometricPrecision; text-rendering:geometricPrecision; image-rendering:optimizeQuality; fill-rule:evenodd; clip-rule:evenodd" xmlns:xlink="http://www.w3.org/1999/xlink">
<g><path style="opacity:0.993" fill="#fcfcfc" d="M 146.5,-0.5 C 158.5,-0.5 170.5,-0.5 182.5,-0.5C 252.723,10.3678 299.557,49.3678 323,116.5C 325.639,126.541 327.806,136.541 329.5,146.5C 329.5,158.5 329.5,170.5 329.5,182.5C 318.632,252.723 279.632,299.557 212.5,323C 202.459,325.639 192.459,327.806 182.5,329.5C 170.5,329.5 158.5,329.5 146.5,329.5C 76.2765,318.632 29.4432,279.632 6,212.5C 3.36072,202.459 1.19405,192.459 -0.5,182.5C -0.5,170.5 -0.5,158.5 -0.5,146.5C 10.3678,76.2765 49.3678,29.4432 116.5,6C 126.541,3.36072 136.541,1.19405 146.5,-0.5 Z"/></g>
<g><path style="opacity:1" fill="#0c0c0c" d="M 208.5,110.5 C 206.652,107.069 203.652,105.403 199.5,105.5C 191.221,101.112 182.721,97.1115 174,93.5C 149.795,105.466 125.628,117.632 101.5,130C 89.118,135.91 76.118,138.91 62.5,139C 59.319,137.367 55.9857,136.034 52.5,135C 51.6634,133.989 51.33,132.822 51.5,131.5C 45.1839,132.424 40.0172,130.424 36,125.5C 33.1875,120.387 31.1875,115.054 30,109.5C 34.8956,117.377 42.0623,121.877 51.5,123C 61.8995,124.469 71.8995,123.135 81.5,119C 87.9544,116.273 94.2878,113.273 100.5,110C 122.96,94.213 145.96,79.213 169.5,65C 170.141,60.548 170.808,56.048 171.5,51.5C 173.674,48.9194 175.84,48.9194 178,51.5C 178.197,56.0855 178.697,60.5855 179.5,65C 201.841,78.8355 223.841,93.1688 245.5,108C 256.344,114.922 268.011,119.922 280.5,123C 292.204,124.725 303.204,122.725 313.5,117C 315.709,115.127 317.542,112.96 319,110.5C 317.788,124.211 310.288,131.211 296.5,131.5C 296.64,133.124 295.973,134.29 294.5,135C 286.559,138.788 278.225,140.122 269.5,139C 263.749,137.224 258.082,135.391 252.5,133.5C 252.667,147.504 252.5,161.504 252,175.5C 250.726,180.714 248.393,185.381 245,189.5C 245.658,184.855 246.658,180.189 248,175.5C 248.667,160.833 248.667,146.167 248,131.5C 234.632,124.899 221.465,117.899 208.5,110.5 Z"/></g>
<g><path style="opacity:1" fill="#e1e0e0" d="M 173.5,72.5 C 203.729,87.9485 232.729,105.449 260.5,125C 263.833,126.667 267.167,128.333 270.5,130C 265.728,128.963 261.061,127.296 256.5,125C 230.087,107.591 202.92,91.4244 175,76.5C 147.645,90.0904 121.478,105.59 96.5,123C 91.7269,125.898 86.7269,127.898 81.5,129C 100.004,117.249 118.338,105.249 136.5,93C 148.927,86.1245 161.261,79.2912 173.5,72.5 Z"/></g>
<g><path style="opacity:1" fill="#474848" d="M 199.5,105.5 C 203.652,105.403 206.652,107.069 208.5,110.5C 205.304,109.071 202.304,107.405 199.5,105.5 Z"/></g>
<g><path style="opacity:1" fill="#181817" d="M 151.5,117.5 C 167.17,117.333 182.837,117.5 198.5,118C 201.986,127.246 208.653,131.079 218.5,129.5C 218.777,132.448 218.444,135.281 217.5,138C 188.835,138.5 160.169,138.667 131.5,138.5C 131.5,135.5 131.5,132.5 131.5,129.5C 141.559,130.842 148.226,126.842 151.5,117.5 Z"/></g>
<g><path style="opacity:1" fill="#f4f4f4" d="M 176.5,120.5 C 183.5,120.5 190.5,120.5 197.5,120.5C 197.5,121.833 197.5,123.167 197.5,124.5C 190.5,124.5 183.5,124.5 176.5,124.5C 176.5,123.167 176.5,121.833 176.5,120.5 Z"/></g>
<g><path style="opacity:1" fill="#ebebeb" d="M 152.5,120.5 C 159.5,120.5 166.5,120.5 173.5,120.5C 173.5,121.833 173.5,123.167 173.5,124.5C 166.5,124.5 159.5,124.5 152.5,124.5C 152.5,123.167 152.5,121.833 152.5,120.5 Z"/></g>
<g><path style="opacity:1" fill="#f9f9f8" d="M 199.5,127.5 C 200.167,127.833 200.833,128.167 201.5,128.5C 193.657,129.82 185.657,129.82 177.5,128.5C 184.803,127.503 192.137,127.169 199.5,127.5 Z"/></g>
<g><path style="opacity:1" fill="#c1c1c1" d="M 148.5,128.5 C 148.611,127.883 148.944,127.383 149.5,127C 157.493,126.5 165.493,126.334 173.5,126.5C 173.5,127.833 173.5,129.167 173.5,130.5C 164.161,130.666 154.827,130.5 145.5,130C 146.527,129.487 147.527,128.987 148.5,128.5 Z"/></g>
<g><path style="opacity:1" fill="#fafaf9" d="M 148.5,128.5 C 156.473,127.23 164.473,127.23 172.5,128.5C 164.343,129.82 156.343,129.82 148.5,128.5 Z"/></g>
<g><path style="opacity:1" fill="#c2c1c1" d="M 199.5,127.5 C 192.137,127.169 184.803,127.503 177.5,128.5C 185.657,129.82 193.657,129.82 201.5,128.5C 202.289,128.783 202.956,129.283 203.5,130C 194.506,130.5 185.506,130.666 176.5,130.5C 176.5,129.167 176.5,127.833 176.5,126.5C 184.352,126.175 192.018,126.508 199.5,127.5 Z"/></g>
<g><path style="opacity:1" fill="#fdfdfd" d="M 134.5,133.5 C 185.167,134.167 185.167,134.833 134.5,135.5C 134.5,134.833 134.5,134.167 134.5,133.5 Z"/></g>
<g><path style="opacity:1" fill="#dddddd" d="M 176.5,132.5 C 189.5,132.5 202.5,132.5 215.5,132.5C 215.5,133.833 215.5,135.167 215.5,136.5C 202.5,136.5 189.5,136.5 176.5,136.5C 176.5,135.167 176.5,133.833 176.5,132.5 Z"/></g>
<g><path style="opacity:1" fill="#a7a9a8" d="M 134.5,133.5 C 147.323,132.505 160.323,132.171 173.5,132.5C 173.5,133.833 173.5,135.167 173.5,136.5C 160.323,136.829 147.323,136.495 134.5,135.5C 185.167,134.833 185.167,134.167 134.5,133.5 Z"/></g>
<g><path style="opacity:1" fill="#000000" d="M 173.5,142.5 C 173.829,157.01 173.496,171.343 172.5,185.5C 159.167,185.5 145.833,185.5 132.5,185.5C 132.5,171.167 132.5,156.833 132.5,142.5C 146.167,142.5 159.833,142.5 173.5,142.5 Z"/></g>
<g><path style="opacity:1" fill="#050505" d="M 217.5,142.5 C 217.5,156.833 217.5,171.167 217.5,185.5C 203.833,185.5 190.167,185.5 176.5,185.5C 175.339,171.339 175.173,157.006 176,142.5C 189.931,141.17 203.765,141.17 217.5,142.5 Z"/></g>
<g><path style="opacity:1" fill="#414242" d="M 173.5,142.5 C 159.833,142.5 146.167,142.5 132.5,142.5C 132.5,156.833 132.5,171.167 132.5,185.5C 145.833,185.5 159.167,185.5 172.5,185.5C 159.01,186.496 145.344,186.829 131.5,186.5C 131.5,171.5 131.5,156.5 131.5,141.5C 145.677,141.171 159.677,141.504 173.5,142.5 Z"/></g>
<g><path style="opacity:1" fill="#424343" d="M 217.5,142.5 C 218.496,156.99 218.829,171.657 218.5,186.5C 204.323,186.829 190.323,186.496 176.5,185.5C 190.167,185.5 203.833,185.5 217.5,185.5C 217.5,171.167 217.5,156.833 217.5,142.5 Z"/></g>
<g><path style="opacity:1" fill="#0f0f0f" d="M 214.5,223.5 C 211.941,223.802 209.607,223.468 207.5,222.5C 212.031,220.478 215.864,217.478 219,213.5C 222.726,208.772 226.059,203.772 229,198.5C 229.492,197.451 229.326,196.451 228.5,195.5C 233.767,193.345 236.433,194.845 236.5,200C 246.736,208.62 258.069,215.453 270.5,220.5C 264.881,221.796 259.214,222.296 253.5,222C 247.198,216.699 241.198,211.032 235.5,205C 234.5,204.333 233.5,204.333 232.5,205C 230.045,208.078 227.711,211.244 225.5,214.5C 226,214.833 226.5,215.167 227,215.5C 239.683,208.684 243.349,212.018 238,225.5C 237.519,227.478 236.353,228.811 234.5,229.5C 232.71,228.214 231.043,226.714 229.5,225C 233.311,224.196 234.645,222.029 233.5,218.5C 231.386,219.034 229.552,220.034 228,221.5C 227.333,225.5 227.333,229.5 228,233.5C 233.173,234.863 238.339,234.696 243.5,233C 244.85,231.282 246.017,229.448 247,227.5C 247.393,230.633 248.226,233.633 249.5,236.5C 248.76,238.894 247.093,240.394 244.5,241C 226.665,245.664 219.998,239.164 224.5,221.5C 224.444,220.263 223.944,219.263 223,218.5C 220.643,221.091 217.809,222.758 214.5,223.5 Z"/></g>
<g><path style="opacity:1" fill="#111112" d="M 144.5,231.5 C 145.655,224.345 145.822,217.012 145,209.5C 144.439,208.978 143.772,208.645 143,208.5C 138.958,210.586 134.791,211.253 130.5,210.5C 125.787,211.9 125.454,213.9 129.5,216.5C 130.192,215.975 130.692,215.308 131,214.5C 131.561,215.022 132.228,215.355 133,215.5C 135.747,213.041 138.914,212.208 142.5,213C 143.406,214.699 143.739,216.533 143.5,218.5C 142.069,219.78 141.402,221.447 141.5,223.5C 138.398,223.154 135.565,223.821 133,225.5C 131.418,223.289 129.251,221.955 126.5,221.5C 125.187,226.861 124.02,232.195 123,237.5C 119.567,233.335 118.567,228.669 120,223.5C 118.285,225.759 116.452,227.926 114.5,230C 113.552,230.483 112.552,230.649 111.5,230.5C 112.323,225.018 114.657,220.184 118.5,216C 114.632,217.365 111.965,216.031 110.5,212C 114.099,210.691 117.599,209.191 121,207.5C 122.354,203.637 122.854,199.637 122.5,195.5C 124.39,195.297 125.89,195.963 127,197.5C 127.498,200.482 127.665,203.482 127.5,206.5C 135.016,204.414 142.683,203.08 150.5,202.5C 155.172,201.379 157.839,203.046 158.5,207.5C 155.102,207.18 151.768,207.513 148.5,208.5C 148.808,209.308 149.308,209.975 150,210.5C 150.895,220.561 150.562,230.561 149,240.5C 147.951,241.517 146.784,241.684 145.5,241C 142.681,238.425 139.681,236.092 136.5,234C 139.675,234.053 142.342,233.22 144.5,231.5 Z"/></g>
<g><path style="opacity:1" fill="#101010" d="M 71.5,195.5 C 75.8421,195.997 77.6754,198.33 77,202.5C 75.9887,203.337 74.8221,203.67 73.5,203.5C 73.3398,205.199 73.5065,206.866 74,208.5C 75.4638,209.459 76.2972,210.792 76.5,212.5C 75.2134,214.16 73.8801,215.826 72.5,217.5C 73.4803,218.981 74.647,220.315 76,221.5C 78.4169,218.977 80.5836,216.311 82.5,213.5C 84.3195,215.128 85.6528,217.128 86.5,219.5C 87.8883,217.891 88.8883,216.058 89.5,214C 87.3886,211.623 85.3886,209.123 83.5,206.5C 86.4033,205.096 89.0699,205.429 91.5,207.5C 92.9501,206.15 93.6168,204.484 93.5,202.5C 95.6348,202.147 96.9681,202.98 97.5,205C 94.5701,211.752 91.9034,218.585 89.5,225.5C 91.8568,225.663 94.1902,225.497 96.5,225C 94.9123,223.013 94.0789,220.846 94,218.5C 97.9255,221.547 101.759,224.714 105.5,228C 104.5,229 103.5,230 102.5,231C 97.2926,231.759 92.1259,231.592 87,230.5C 83.6121,236.236 79.7788,241.736 75.5,247C 71.3956,249.217 67.0623,250.55 62.5,251C 71.8953,244.441 78.8953,235.941 83.5,225.5C 82.7643,223.459 81.9309,221.459 81,219.5C 80.2945,223.963 78.6278,227.963 76,231.5C 74.1653,229.551 72.9986,227.217 72.5,224.5C 71.9093,230.245 71.0759,235.912 70,241.5C 66.585,238.089 65.585,234.089 67,229.5C 65.5422,231.96 63.7089,234.127 61.5,236C 60.6683,236.688 60.0016,236.521 59.5,235.5C 58.5153,233.902 58.3486,232.235 59,230.5C 61.1896,228.612 63.0229,226.445 64.5,224C 59.6277,225.487 55.6277,224.154 52.5,220C 57.7311,217.769 62.7311,215.103 67.5,212C 68.4231,209.959 68.7564,207.792 68.5,205.5C 65.4816,205.665 62.4816,205.498 59.5,205C 63.7514,202.055 67.7514,198.888 71.5,195.5 Z"/></g>
<g><path style="opacity:1" fill="#151515" d="M 101.5,195.5 C 106.663,195.107 108.33,197.273 106.5,202C 104.833,202.833 103.167,203.667 101.5,204.5C 100.453,203.078 100.453,201.578 101.5,200C 101.095,199.055 100.428,198.388 99.5,198C 100.381,197.292 101.047,196.458 101.5,195.5 Z"/></g>
<g><path style="opacity:1" fill="#121213" d="M 185.5,197.5 C 191.337,196.518 194.17,198.851 194,204.5C 190.334,205.087 186.834,206.254 183.5,208C 181.5,208.667 179.5,208.667 177.5,208C 177.957,207.586 178.291,207.086 178.5,206.5C 177.248,204.999 176.248,203.332 175.5,201.5C 178.986,200.287 182.32,198.954 185.5,197.5 Z"/></g>
<g><path style="opacity:1" fill="#191919" d="M 99.5,210.5 C 103.281,210.219 105.948,211.719 107.5,215C 105.729,220.191 102.729,220.858 98.5,217C 101.167,215.333 101.167,213.667 98.5,212C 99.056,211.617 99.3893,211.117 99.5,210.5 Z"/></g>
<g><path style="opacity:1" fill="#0e0e0e" d="M 195.5,211.5 C 198.518,211.335 201.518,211.502 204.5,212C 207.274,213.605 207.94,215.772 206.5,218.5C 200.907,218.626 195.24,218.792 189.5,219C 187.593,222.91 184.927,226.244 181.5,229C 185.772,229.743 189.439,228.576 192.5,225.5C 201.438,227.207 203.438,231.707 198.5,239C 197.207,239.49 195.873,239.657 194.5,239.5C 193.353,236.5 193.187,233.5 194,230.5C 189.897,233.427 185.397,235.593 180.5,237C 177.28,238.525 173.947,239.192 170.5,239C 169.213,235.875 169.213,232.709 170.5,229.5C 172.833,227.833 174.833,225.833 176.5,223.5C 173.106,222.777 169.772,223.277 166.5,225C 161.619,226.68 158.286,225.18 156.5,220.5C 169.594,217.307 182.594,214.307 195.5,211.5 Z"/></g>
<g><path style="opacity:1" fill="#e3e3e4" d="M 144.5,231.5 C 144.818,226.968 144.485,222.634 143.5,218.5C 143.739,216.533 143.406,214.699 142.5,213C 138.914,212.208 135.747,213.041 133,215.5C 132.228,215.355 131.561,215.022 131,214.5C 130.692,215.308 130.192,215.975 129.5,216.5C 125.454,213.9 125.787,211.9 130.5,210.5C 134.791,211.253 138.958,210.586 143,208.5C 143.772,208.645 144.439,208.978 145,209.5C 145.822,217.012 145.655,224.345 144.5,231.5 Z"/></g>
<g><path style="opacity:1" fill="#636364" d="M 207.5,222.5 C 209.607,223.468 211.941,223.802 214.5,223.5C 211.696,224.638 208.696,224.805 205.5,224C 206.044,223.283 206.711,222.783 207.5,222.5 Z"/></g>
<g><path style="opacity:1" fill="#343434" d="M 157.5,243.5 C 160.137,245.154 159.803,245.654 156.5,245C 157.056,244.617 157.389,244.117 157.5,243.5 Z"/></g>
<g><path style="opacity:1" fill="#999999" d="M 140.5,248.5 C 138.744,249.552 138.077,251.219 138.5,253.5C 137.539,251.735 137.205,249.735 137.5,247.5C 138.791,247.263 139.791,247.596 140.5,248.5 Z"/></g>
<g><path style="opacity:1" fill="#191919" d="M 140.5,248.5 C 142.903,248.448 145.236,248.781 147.5,249.5C 146.283,261.008 144.949,261.174 143.5,250C 142.004,249.493 140.837,249.993 140,251.5C 139.667,253.833 139.333,256.167 139,258.5C 138.506,256.866 138.34,255.199 138.5,253.5C 138.077,251.219 138.744,249.552 140.5,248.5 Z"/></g>
<g><path style="opacity:1" fill="#101010" d="M 147.5,249.5 C 148.919,248.549 150.585,248.216 152.5,248.5C 152.665,251.85 152.498,255.183 152,258.5C 151.667,255.833 151.333,253.167 151,250.5C 149.989,249.663 148.822,249.33 147.5,249.5 Z"/></g>
<g><path style="opacity:1" fill="#2d2d2d" d="M 165.5,247.5 C 172.603,248.867 173.937,252.367 169.5,258C 164.16,258.989 161.66,256.822 162,251.5C 162.69,249.65 163.856,248.316 165.5,247.5 Z"/></g>
<g><path style="opacity:1" fill="#e4e4e4" d="M 165.5,249.5 C 169.841,249.519 171.175,251.519 169.5,255.5C 163.344,256.946 162.011,254.946 165.5,249.5 Z"/></g>
<g><path style="opacity:1" fill="#6e6e6e" d="M 115.5,250.5 C 122.532,250.17 129.532,250.503 136.5,251.5C 133,251.833 129.5,252.167 126,252.5C 122.098,252.488 118.598,251.821 115.5,250.5 Z"/></g>
<g><path style="opacity:1" fill="#2b2b2b" d="M 176.5,248.5 C 183.531,248.519 183.864,249.019 177.5,250C 175.41,256.082 177.076,257.582 182.5,254.5C 183.711,255.274 183.711,256.107 182.5,257C 176.148,259.399 173.648,257.232 175,250.5C 175.717,249.956 176.217,249.289 176.5,248.5 Z"/></g>
<g><path style="opacity:1" fill="#6f6f6f" d="M 184.5,250.5 C 191.532,250.17 198.532,250.503 205.5,251.5C 202,251.833 198.5,252.167 195,252.5C 191.098,252.488 187.598,251.821 184.5,250.5 Z"/></g>
<g><path style="opacity:1" fill="#6b6b6b" d="M 156.5,247.5 C 157.5,247.5 158.5,247.5 159.5,247.5C 159.665,250.85 159.498,254.183 159,257.5C 158.586,257.957 158.086,258.291 157.5,258.5C 156.511,254.893 156.177,251.226 156.5,247.5 Z"/></g>
</svg>
